999
dxfrw 0.6.3
  0
SECTION
  2
HEADER
  9
$ACADVER
  1
AC1027
  9
$DWGCODEPAGE
  3
UTF-8
  9
$INSBASE
 10
0
 20
0
 30
0
  9
$EXTMIN
 10
1e+20
 20
1e+20
 30
1e+20
  9
$EXTMAX
 10
-1e+20
 20
-1e+20
 30
-1e+20
  9
$LIMMIN
 10
0
 20
0
  9
$LIMMAX
 10
420
 20
297
  9
$ORTHOMODE
 70
    0
  9
$REGENMODE
 70
    1
  9
$FILLMODE
 70
    1
  9
$QTEXTMODE
 70
    0
  9
$MIRRTEXT
 70
    0
  9
$LTSCALE
 40
1
  9
$ATTMODE
 70
    0
  9
$TEXTSIZE
 40
2.5
  9
$TRACEWID
 40
15.68
  9
$TEXTSTYLE
  7
STANDARD
  9
$CLAYER
  8
1
  9
$CELTYPE
  6
BYLAYER
  9
$CECOLOR
 62
  256
  9
$CELTSCALE
 40
1
  9
$DISPSILH
 70
    0
  9
$DIMSCALE
 40
1
  9
$DIMASZ
 40
2.5
  9
$DIMEXO
 40
0.625
  9
$DIMDLI
 40
3.75
  9
$DIMRND
 40
0
  9
$DIMDLE
 40
0
  9
$DIMEXE
 40
1.25
  9
$DIMTP
 40
0
  9
$DIMTM
 40
0
  9
$DIMTXT
 40
2.5
  9
$DIMCEN
 40
2.5
  9
$DIMTSZ
 40
0
  9
$DIMTOL
 70
    0
  9
$DIMLIM
 70
    0
  9
$DIMTIH
 70
    0
  9
$DIMTOH
 70
    0
  9
$DIMSE1
 70
    0
  9
$DIMSE2
 70
    0
  9
$DIMTAD
 70
    1
  9
$DIMZIN
 70
    8
  9
$DIMBLK
  1

  9
$DIMASO
 70
    1
  9
$DIMSHO
 70
    1
  9
$DIMPOST
  1

  9
$DIMAPOST
  1

  9
$DIMALT
 70
    0
  9
$DIMALTD
 70
    3
  9
$DIMALTF
 40
0.03937
  9
$DIMLFAC
 40
1
  9
$DIMTOFL
 70
    1
  9
$DIMTVP
 40
0
  9
$DIMTIX
 70
    0
  9
$DIMSOXD
 70
    0
  9
$DIMSAH
 70
    0
  9
$DIMBLK1
  1

  9
$DIMBLK2
  1

  9
$DIMSTYLE
  2
STANDARD
  9
$DIMCLRD
 70
    0
  9
$DIMCLRE
 70
    0
  9
$DIMCLRT
 70
    0
  9
$DIMTFAC
 40
1
  9
$DIMGAP
 40
0.625
  9
$DIMJUST
 70
    0
  9
$DIMSD1
 70
    0
  9
$DIMSD2
 70
    0
  9
$DIMTOLJ
 70
    0
  9
$DIMTZIN
 70
    8
  9
$DIMALTZ
 70
    0
  9
$DIMALTTZ
 70
    0
  9
$DIMUPT
 70
    0
  9
$DIMDEC
 70
    2
  9
$DIMTDEC
 70
    2
  9
$DIMALTU
 70
    2
  9
$DIMALTTD
 70
    3
  9
$DIMTXSTY
  7
STANDARD
  9
$DIMAUNIT
 70
    0
  9
$DIMADEC
 70
    0
  9
$DIMALTRND
 40
0
  9
$DIMAZIN
 70
    0
  9
$DIMDSEP
 70
   44
  9
$DIMATFIT
 70
    3
  9
$DIMFRAC
 70
    0
  9
$DIMLDRBLK
  1
STANDARD
  9
$DIMLUNIT
 70
    2
  9
$DIMLWD
 70
   -2
  9
$DIMLWE
 70
   -2
  9
$DIMTMOVE
 70
    0
  9
$DIMFXL
 40
1
  9
$DIMFXLON
 70
    0
  9
$DIMJOGANG
 40
0.7854
  9
$DIMTFILL
 70
    0
  9
$DIMTFILLCLR
 70
    0
  9
$DIMARCSYM
 70
    0
  9
$DIMLTYPE
  6

  9
$DIMLTEX1
  6

  9
$DIMLTEX2
  6

  9
$DIMTXTDIRECTION
 70
    0
  9
$LUNITS
 70
    2
  9
$LUPREC
 70
    4
  9
$SKETCHINC
 40
1
  9
$FILLETRAD
 40
0
  9
$AUNITS
 70
    0
  9
$AUPREC
 70
    2
  9
$MENU
  1
.
  9
$ELEVATION
 40
0
  9
$PELEVATION
 40
0
  9
$THICKNESS
 40
0
  9
$LIMCHECK
 70
    0
  9
$CHAMFERA
 40
0
  9
$CHAMFERB
 40
0
  9
$CHAMFERC
 40
0
  9
$CHAMFERD
 40
0
  9
$SKPOLY
 70
    0
  9
$USRTIMER
 70
    1
  9
$ANGBASE
 50
0
  9
$ANGDIR
 70
    0
  9
$PDMODE
 70
   34
  9
$PDSIZE
 40
0
  9
$PLINEWID
 40
0
  9
$SPLFRAME
 70
    0
  9
$SPLINETYPE
 70
    2
  9
$SPLINESEGS
 70
    8
  9
$HANDSEED
  5
20000
  9
$SURFTAB1
 70
    6
  9
$SURFTAB2
 70
    6
  9
$SURFTYPE
 70
    6
  9
$SURFU
 70
    6
  9
$SURFV
 70
    6
  9
$TDCREATE
 40
20171230.18313874
  9
$UCSBASE
  2

  9
$UCSNAME
  2

  9
$UCSORG
 10
0
 20
0
 30
0
  9
$UCSXDIR
 10
1
 20
0
 30
0
  9
$UCSYDIR
 10
0
 20
1
 30
0
  9
$UCSORTHOREF
  2

  9
$UCSORTHOVIEW
 70
    0
  9
$UCSORGTOP
 10
0
 20
0
 30
0
  9
$UCSORGBOTTOM
 10
0
 20
0
 30
0
  9
$UCSORGLEFT
 10
0
 20
0
 30
0
  9
$UCSORGRIGHT
 10
0
 20
0
 30
0
  9
$UCSORGFRONT
 10
0
 20
0
 30
0
  9
$UCSORGBACK
 10
0
 20
0
 30
0
  9
$PUCSBASE
  2

  9
$PUCSNAME
  2

  9
$PUCSORG
 10
0
 20
0
 30
0
  9
$PUCSXDIR
 10
1
 20
0
 30
0
  9
$PUCSYDIR
 10
0
 20
1
 30
0
  9
$PUCSORTHOREF
  2

  9
$PUCSORTHOVIEW
 70
    0
  9
$PUCSORGTOP
 10
0
 20
0
 30
0
  9
$PUCSORGBOTTOM
 10
0
 20
0
 30
0
  9
$PUCSORGLEFT
 10
0
 20
0
 30
0
  9
$PUCSORGRIGHT
 10
0
 20
0
 30
0
  9
$PUCSORGFRONT
 10
0
 20
0
 30
0
  9
$PUCSORGBACK
 10
0
 20
0
 30
0
  9
$USERI1
 70
    0
  9
$USERI2
 70
    0
  9
$USERI3
 70
    0
  9
$USERI4
 70
    0
  9
$USERI5
 70
    0
  9
$USERR1
 40
0
  9
$USERR2
 40
0
  9
$USERR3
 40
0
  9
$USERR4
 40
0
  9
$USERR5
 40
0
  9
$WORLDVIEW
 70
    1
  9
$SHADEDGE
 70
    3
  9
$SHADEDIF
 70
   70
  9
$TILEMODE
 70
    1
  9
$MAXACTVP
 70
   64
  9
$PINSBASE
 10
0
 20
0
 30
0
  9
$PLIMCHECK
 70
    0
  9
$PEXTMIN
 10
0
 20
0
 30
0
  9
$PEXTMAX
 10
0
 20
0
 30
0
  9
$PLIMMIN
 10
0
 20
0
  9
$PLIMMAX
 10
297
 20
210
  9
$UNITMODE
 70
    0
  9
$VISRETAIN
 70
    1
  9
$PLINEGEN
 70
    0
  9
$PSLTSCALE
 70
    1
  9
$TREEDEPTH
 70
 3020
  9
$CMLSTYLE
  2
Standard
  9
$CMLJUST
 70
    0
  9
$CMLSCALE
 40
20
  9
$PROXYGRAPHICS
 70
    1
  9
$MEASUREMENT
 70
    1
  9
$CELWEIGHT
370
   -1
  9
$ENDCAPS
280
    0
  9
$JOINSTYLE
280
    0
  9
$LWDISPLAY
290
    0
  9
$INSUNITS
 70
    4
  9
$HYPERLINKBASE
  1

  9
$STYLESHEET
  1

  9
$XEDIT
290
    1
  9
$CEPSNTYPE
380
    0
  9
$PSTYLEMODE
290
    1
  9
$EXTNAMES
290
    1
  9
$PSVPSCALE
 40
0
  9
$OLESTARTUP
290
    0
  9
$SORTENTS
280
  127
  9
$INDEXCTL
280
    0
  9
$HIDETEXT
280
    1
  9
$XCLIPFRAME
280
    0
  9
$HALOGAP
280
    0
  9
$OBSCOLOR
 70
  257
  9
$OBSLTYPE
280
    0
  9
$INTERSECTIONDISPLAY
280
    0
  9
$INTERSECTIONCOLOR
 70
  257
  9
$DIMASSOC
280
    1
  9
$PROJECTNAME
  1

  9
$CAMERADISPLAY
290
    0
  9
$LENSLENGTH
 40
50
  9
$CAMERAHEIGHT
 40
0
  9
$STEPSPERSEC
 40
2
  9
$STEPSIZE
 40
50
  9
$3DDWFPREC
 40
2
  9
$PSOLWIDTH
 40
5
  9
$PSOLHEIGHT
 40
80
  9
$LOFTANG1
 40
1.570796326794897
  9
$LOFTANG2
 40
1.570796326794897
  9
$LOFTMAG1
 40
0
  9
$LOFTMAG2
 40
0
  9
$LOFTPARAM
 70
    7
  9
$LOFTNORMALS
280
    1
  9
$LATITUDE
 40
1
  9
$LONGITUDE
 40
1
  9
$NORTHDIRECTION
 40
0
  9
$TIMEZONE
 70
-8000
  9
$LIGHTGLYPHDISPLAY
280
    1
  9
$TILEMODELIGHTSYNCH
280
    1
  9
$SOLIDHIST
280
    1
  9
$SHOWHIST
280
    1
  9
$DWFFRAME
280
    2
  9
$DGNFRAME
280
    0
  9
$REALWORLDSCALE
290
    1
  9
$INTERFERECOLOR
 62
    1
  9
$CSHADOW
280
    0
  9
$SHADOWPLANELOCATION
 40
0
  0
ENDSEC
  0
SECTION
  2
CLASSES
  0
ENDSEC
  0
SECTION
  2
TABLES
  0
TABLE
  2
VPORT
  5
8
330
0
100
AcDbSymbolTable
 70
    1
  0
VPORT
  5
31
330
2
100
AcDbSymbolTableRecord
100
AcDbViewportTableRecord
  2
*ACTIVE
 70
    0
 10
0
 20
0
 11
1
 21
1
 12
0.651828
 22
-0.16
 13
0
 23
0
 14
10
 24
10
 15
10
 25
10
 16
0
 26
0
 36
1
 17
0
 27
0
 37
0
 40
5.13732
 41
2.4426877
 42
50
 43
0
 44
0
 50
0
 51
0
 71
    0
 72
  100
 73
    1
 74
    3
 75
    0
 76
    0
 77
    0
 78
    0
281
    0
 65
    1
110
0
120
0
130
0
111
1
121
0
131
0
112
0
122
1
132
0
 79
    0
146
0
348
10020
 60
    7
 61
    5
292
1
282
    1
141
0
142
0
 63
  250
421
3358443
  0
ENDTAB
  0
TABLE
  2
LTYPE
  5
5
330
0
100
AcDbSymbolTable
 70
    4
  0
LTYPE
  5
14
330
5
100
AcDbSymbolTableRecord
100
AcDbLinetypeTableRecord
  2
ByBlock
 70
    0
  3

 72
   65
 73
    0
 40
0
  0
LTYPE
  5
15
330
5
100
AcDbSymbolTableRecord
100
AcDbLinetypeTableRecord
  2
ByLayer
 70
    0
  3

 72
   65
 73
    0
 40
0
  0
LTYPE
  5
16
330
5
100
AcDbSymbolTableRecord
100
AcDbLinetypeTableRecord
  2
Continuous
 70
    0
  3
Solid line
 72
   65
 73
    0
 40
0
  0
ENDTAB
  0
TABLE
  2
LAYER
  5
2
330
0
100
AcDbSymbolTable
 70
    1
  0
LAYER
  5
10
330
2
100
AcDbSymbolTableRecord
100
AcDbLayerTableRecord
  2
0
 70
    0
 62
  250
  6
CONTINUOUS
370
   13
390
F
  0
LAYER
  5
32
330
2
100
AcDbSymbolTableRecord
100
AcDbLayerTableRecord
  2
1
 70
    0
 62
  250
  6
CONTINUOUS
370
   -3
390
F
  0
LAYER
  5
33
330
2
100
AcDbSymbolTableRecord
100
AcDbLayerTableRecord
  2
8
 70
    0
 62
  250
  6
CONTINUOUS
370
   -3
390
F
  0
LAYER
  5
34
330
2
100
AcDbSymbolTableRecord
100
AcDbLayerTableRecord
  2
7
 70
    0
 62
  250
  6
CONTINUOUS
370
   -3
390
F
  0
LAYER
  5
35
330
2
100
AcDbSymbolTableRecord
100
AcDbLayerTableRecord
  2
11
 70
    0
 62
  250
  6
CONTINUOUS
370
   -3
390
F
  0
LAYER
  5
36
330
2
100
AcDbSymbolTableRecord
100
AcDbLayerTableRecord
  2
4
 70
    0
 62
  250
  6
CONTINUOUS
370
   -3
390
F
  0
ENDTAB
  0
TABLE
  2
STYLE
  5
3
330
0
100
AcDbSymbolTable
 70
    3
  0
STYLE
  5
37
330
2
100
AcDbSymbolTableRecord
100
AcDbTextStyleTableRecord
  2
Standard
 70
    0
 40
0
 41
1
 50
0
 71
    0
 42
2.5
  3
txt
  4

1001
ACAD
1000
txt
  0
ENDTAB
  0
TABLE
  2
VIEW
  5
6
330
0
100
AcDbSymbolTable
 70
    0
  0
ENDTAB
  0
TABLE
  2
UCS
  5
7
330
0
100
AcDbSymbolTable
 70
    0
  0
ENDTAB
  0
TABLE
  2
APPID
  5
9
330
0
100
AcDbSymbolTable
 70
    1
  0
APPID
  5
12
330
9
100
AcDbSymbolTableRecord
100
AcDbRegAppTableRecord
  2
ACAD
 70
    0
  0
APPID
  5
38
330
9
100
AcDbSymbolTableRecord
100
AcDbRegAppTableRecord
  2
Valentina
 70
    0
  0
ENDTAB
  0
TABLE
  2
DIMSTYLE
  5
A
330
0
100
AcDbSymbolTable
 70
    1
100
AcDbDimStyleTable
 71
    1
  0
DIMSTYLE
105
39
330
A
100
AcDbSymbolTableRecord
100
AcDbDimStyleTableRecord
  2
Standard
 70
    0
 40
1
 41
2.5
 42
0.625
 43
3.75
 44
1.25
 45
0
 46
0
 47
0
 48
0
140
2.5
141
2.5
142
0
143
0.03937007874015748
144
1
145
0
146
1
147
0.625
148
0
 71
    0
 72
    0
 73
    0
 74
    0
 75
    0
 76
    0
 77
    1
 78
    8
 79
    0
170
    0
171
    3
172
    1
173
    0
174
    0
175
    0
176
    0
177
    0
178
    0
179
    0
271
    2
272
    2
273
    2
274
    3
275
    0
276
    0
277
    2
278
   44
279
    0
280
    0
281
    0
282
    0
283
    0
284
    8
285
    0
286
    0
288
    0
289
    3
341

371
   -2
372
   -2
  0
ENDTAB
  0
TABLE
  2
BLOCK_RECORD
  5
1
330
0
100
AcDbSymbolTable
 70
    2
  0
BLOCK_RECORD
  5
1F
330
1
100
AcDbSymbolTableRecord
100
AcDbBlockTableRecord
  2
*Model_Space
 70
    0
280
    1
281
    0
  0
BLOCK_RECORD
  5
1E
330
1
100
AcDbSymbolTableRecord
100
AcDbBlockTableRecord
  2
*Paper_Space
 70
    0
280
    1
281
    0
  0
BLOCK_RECORD
  5
3A
330
1
100
AcDbSymbolTableRecord
100
AcDbBlockTableRecord
  2
Detail
 70
    0
280
    1
281
    0
  0
BLOCK_RECORD
  5
3D
330
1
100
AcDbSymbolTableRecord
100
AcDbBlockTableRecord
  2
Detail
 70
    0
280
    1
281
    0
  0
BLOCK_RECORD
  5
40
330
1
100
AcDbSymbolTableRecord
100
AcDbBlockTableRecord
  2
Detail
 70
    0
280
    1
281
    0
  0
ENDTAB
  0
ENDSEC
  0
SECTION
  2
BLOCKS
  0
BLOCK
  5
20
330
1F
100
AcDbEntity
  8
0
100
AcDbBlockBegin
  2
*Model_Space
 70
    0
 10
0
 20
0
 30
0
  3
*Model_Space
  1

  0
ENDBLK
  5
21
330
1F
100
AcDbEntity
  8
0
100
AcDbBlockEnd
  0
BLOCK
  5
1C
330
1B
100
AcDbEntity
  8
0
100
AcDbBlockBegin
  2
*Paper_Space
 70
    0
 10
0
 20
0
 30
0
  3
*Paper_Space
  1

  0
ENDBLK
  5
1D
330
1F
100
AcDbEntity
  8
0
100
AcDbBlockEnd
  0
BLOCK
  5
41
330
40
100
AcDbEntity
  8
1
100
AcDbBlockBegin
  2
Detail
 70
    0
 10
0
 20
0
  3
Detail
  1

  0
LWPOLYLINE
  5
43
100
AcDbEntity
  8
1
  6
BYLAYER
 62
  256
370
   -1
100
AcDbPolyline
 90
   86
 70
    1
 43
0
 10
1760.257665632618
 20
159.3855664786602
 10
1614.361649499923
 20
194.233127033288
 10
1429.597402223029
 20
238.3644437476237
 10
1425.521236291173
 20
239.3049924834854
 10
1418.650845363631
 20
240.5058580280817
 10
1413.389027437907
 20
240.9435197137063
 10
1410.531800753993
 20
240.8457446595698
 10
1409.192197683063
 20
240.6689214943349
 10
1408.162457412847
 20
240.4273439806286
 10
1407.456321230795
 20
240.1739564498649
 10
1406.99363093348
 20
239.9380600759039
 10
1406.672161653983
 20
239.7149786340136
 10
1406.392675285312
 20
239.4581688315149
 10
1406.145444659647
 20
239.1630580958146
 10
1405.477826055528
 20
238.100726523282
 10
1405.099607376358
 20
237.2502202441144
 10
1369.788994443591
 20
146.6589144203686
 10
1368.202320249193
 20
143.1908860551151
 10
1364.452461014853
 20
136.7151672378997
 10
1359.841950451523
 20
130.2948298468369
 10
1354.495993255586
 20
124.0455720635867
 10
1348.477170899828
 20
118.0096077673555
 10
1341.844153927751
 20
112.2420915754248
 10
1334.65378782675
 20
106.807154570273
 10
1326.961764780363
 20
101.775479482198
 10
1318.822761418942
 20
97.22303969457155
 10
1310.290495926777
 20
93.2307121267734
 10
1301.499961915858
 20
89.91547092693646
 10
1289.890120764363
 20
86.38926985158504
 10
1284.351503028645
 20
97.85103932460888
 10
1279.854577364548
 20
106.2084407878315
 10
1276.067889712151
 20
113.566599384866
 10
1273.487833221577
 20
119.1212705883286
 10
1271.014904965145
 20
125.1899974915937
 10
1268.742749761795
 20
131.833961477511
 10
1266.77162019734
 20
139.0900783583677
 10
1265.196210258051
 20
146.9935112324106
 10
1264.104546709708
 20
155.5795559180087
 10
1263.578117605624
 20
164.8859137496407
 10
1263.693098262271
 20
174.9545306695311
 10
1264.522173656725
 20
185.832511820363
 10
1266.136382628257
 20
197.5720698011552
 10
1268.598604278993
 20
210.1888961509197
 10
1270.207491944266
 20
216.882617114197
 10
1289.097141386546
 20
295.9677684392537
 10
1319.67315883893
 20
423.9801476275622
 10
1416.93716959406
 20
400.7484405911437
 10
1465.359409897345
 20
389.1826898880898
 10
1468.115371969279
 20
388.6488537012299
 10
1473.847158362299
 20
387.8767498117284
 10
1479.368009248108
 20
387.5182233737568
 10
1484.767186428998
 20
387.5345042468295
 10
1490.0760048074
 20
387.8981151287034
 10
1495.323400041178
 20
388.5844696462779
 10
1500.535074214981
 20
389.5707507585738
 10
1505.733272904748
 20
390.834704094303
 10
1510.9370958701
 20
392.3536087747189
 10
1516.139947273982
 20
394.0958017413731
 10
1524.050000524672
 20
397.0789629903284
 10
1540.374318202091
 20
404.1171243545385
 10
1557.476392261771
 20
411.7835883774781
 10
1569.574783774193
 20
416.8014230263486
 10
1579.102708439919
 20
420.2908468064854
 10
1585.717618661213
 20
422.4504827126731
 10
1592.517198119363
 20
424.4081094185331
 10
1599.536714603596
 20
426.1329466316722
 10
1606.787762988907
 20
427.5868235630699
 10
1614.280744717098
 20
428.731884537028
 10
1622.024941704298
 20
429.5309606257818
 10
1630.028742008564
 20
429.9479166666666
 10
1638.299999999999
 20
429.9479166666666
 10
1646.846484122495
 20
429.4975602431991
 10
1655.676345034251
 20
428.5648666443394
 10
1664.757010511113
 20
427.1256947968474
 10
1669.590559140419
 20
426.1481907493683
 10
1675.569188228149
 20
424.7016750340804
 10
1686.950703047674
 20
421.7719741300721
 10
1703.509184487302
 20
417.1476540325071
 10
1724.438180805236
 20
410.5694950651755
 10
1744.06503494894
 20
403.6195999357868
 10
1762.295432912188
 20
396.3924345738562
 10
1779.051042612722
 20
388.9758182450573
 10
1794.256633422218
 20
381.4538762387621
 10
1807.798263384956
 20
373.9285350431103
 10
1811.025849276463
 20
371.9363339367985
 10
1760.257665632618
 20
159.3855664786602
  0
LWPOLYLINE
  5
44
100
AcDbEntity
  8
8
  6
BYLAYER
 62
  256
370
   -1
100
AcDbPolyline
 90
   85
 70
    1
 43
0
 10
1762.580836336259
 20
169.1119675541732
 10
1616.684820203565
 20
203.959528108801
 10
1431.883199768818
 20
248.0997714779961
 10
1427.50773935813
 20
249.1093804651877
 10
1419.928778888546
 20
250.4340958398683
 10
1413.633317304465
 20
250.9577327972027
 10
1409.704545896381
 20
250.8232891987027
 10
1407.391466834458
 20
250.5179704292527
 10
1405.322479033507
 20
250.0325849944018
 10
1403.480519502324
 20
249.3716224361354
 10
1401.84852524971
 20
248.5395722964394
 10
1400.409433284463
 20
247.5409241172993
 10
1399.146180615382
 20
246.3801674407009
 10
1398.041704251265
 20
245.0617918086299
 10
1396.630855130277
 20
242.8168130796693
 10
1395.867311121928
 20
241.0998196859352
 10
1360.576048780772
 20
150.5581588617206
 10
1359.308285861094
 20
147.7871818196885
 10
1356.044113098512
 20
142.1502062266525
 10
1351.967018562796
 20
136.4726739588066
 10
1347.14528507032
 20
130.8362173894354
 10
1341.647195437455
 20
125.3224688918237
 10
1335.541032480576
 20
120.013060839256
 10
1328.895079016054
 20
114.9896256050172
 10
1321.777617860263
 20
110.3337955623916
 10
1314.256931829575
 20
106.1272030846644
 10
1306.401303740363
 20
102.4514805451197
 10
1298.279016409
 20
99.38826031704245
 10
1295.171148437983
 20
98.44432256298983
 10
1293.26071520935
 20
102.3978261815892
 10
1288.704212068398
 20
110.8659505985454
 10
1285.052090994549
 20
117.9626241411687
 10
1282.658123891045
 20
123.1166586285739
 10
1280.383949430817
 20
128.6976307791418
 10
1278.308749857677
 20
134.7656807112992
 10
1276.511707415433
 20
141.3809485434733
 10
1275.072004347897
 20
148.6035743940905
 10
1274.068822898876
 20
156.4936983815779
 10
1273.581345312183
 20
165.1114606243624
 10
1273.688753831626
 20
174.5170012408707
 10
1274.470230701015
 20
184.7704603495297
 10
1276.004958164161
 20
195.9319780687663
 10
1278.372118464873
 20
208.0616945170074
 10
1279.93223897231
 20
214.5525214226232
 10
1298.823542462059
 20
293.6445977356119
 10
1327.076389210801
 20
411.9305758484074
 10
1414.613998890418
 20
391.0220395156307
 10
1463.246004267983
 20
379.4061859974215
 10
1466.495699650749
 20
378.7767125335959
 10
1472.854456629486
 20
377.9201521771848
 10
1479.058710729229
 20
377.5172452397109
 10
1485.124303800152
 20
377.5355356472284
 10
1491.067077692435
 20
377.9425673257921
 10
1496.902874256253
 20
378.7058842014561
 10
1502.647535341782
 20
379.793030200275
 10
1508.316902799199
 20
381.1715492483033
 10
1513.926818478681
 20
382.8089852715953
 10
1519.493124230404
 20
384.6728821962055
 10
1527.795968953492
 20
387.8041790217799
 10
1544.399386709869
 20
394.9626732189632
 10
1561.43800694837
 20
402.6006923623228
 10
1573.21140626805
 20
407.4837357801708
 10
1582.375001417777
 20
410.8397307054903
 10
1588.653652350167
 20
412.8895846781655
 10
1595.094637407094
 20
414.7439705908666
 10
1601.713798438734
 20
416.3704323696481
 10
1608.526977295264
 20
417.7365139405644
 10
1615.55001582686
 20
418.80975922967
 10
1622.798755883699
 20
419.5577121630194
 10
1630.289039315957
 20
419.9479166666668
 10
1638.036707973811
 20
419.9479166666669
 10
1646.057603707438
 20
419.525256089074
 10
1654.367568367014
 20
418.6474788599425
 10
1662.982443802716
 20
417.2821289053269
 10
1667.422868371102
 20
416.3841275980046
 10
1673.146834612973
 20
414.9992269792933
 10
1684.359122708907
 20
412.1130865057679
 10
1700.66431752671
 20
407.5595022676488
 10
1721.268972436106
 20
401.0832865236154
 10
1740.552204656951
 20
394.2550683736621
 10
1758.427500722391
 20
387.1686777847767
 10
1774.808347165569
 20
379.9179447239471
 10
1789.608230519629
 20
372.5966991581612
 10
1802.740637317717
 20
365.2987710544071
 10
1808.579616268368
 20
361.6947088493304
  0
LINE
  5
45
100
AcDbEntity
  8
4
  6
BYLAYER
 62
  256
370
   -1
100
AcDbLine
 10
1760.257665632618
 20
159.3855664786602
 11
1761.419250984439
 21
164.2487670164167
  0
LINE
  5
46
100
AcDbEntity
  8
4
  6
BYLAYER
 62
  256
370
   -1
100
AcDbLine
 10
1614.361649499923
 20
194.233127033288
 11
1615.523234851744
 21
199.0963275710445
  0
LINE
  5
47
100
AcDbEntity
  8
4
  6
BYLAYER
 62
  256
370
   -1
100
AcDbLine
 10
1429.634842876687
 20
238.3558045606874
 11
1430.759021322752
 21
243.2277880193417
  0
LINE
  5
48
100
AcDbEntity
  8
4
  6
BYLAYER
 62
  256
370
   -1
100
AcDbLine
 10
1369.788994443591
 20
146.6589144203686
 11
1365.184420032192
 21
148.6077331625542
  0
LINE
  5
49
100
AcDbEntity
  8
4
  6
BYLAYER
 62
  256
370
   -1
100
AcDbLine
 10
1289.890120764363
 20
86.38926985158504
 11
1291.896428360058
 21
90.96908751514485
  0
LINE
  5
4A
100
AcDbEntity
  8
4
  6
BYLAYER
 62
  256
370
   -1
100
AcDbLine
 10
1270.205837896797
 20
216.875692126265
 11
1275.069038434553
 21
215.714106774444
  0
LINE
  5
4B
100
AcDbEntity
  8
4
  6
BYLAYER
 62
  256
370
   -1
100
AcDbLine
 10
1289.097141386546
 20
295.9677684392537
 11
1293.960341924302
 21
294.8061830874328
  0
LINE
  5
4C
100
AcDbEntity
  8
4
  6
BYLAYER
 62
  256
370
   -1
100
AcDbLine
 10
1319.67315883893
 20
423.9801476275622
 11
1322.290596038248
 21
419.719980669845
  0
LINE
  5
4D
100
AcDbEntity
  8
4
  6
BYLAYER
 62
  256
370
   -1
100
AcDbLine
 10
1416.93716959406
 20
400.7484405911437
 11
1415.775584242239
 21
395.8852400533872
  0
LINE
  5
4E
100
AcDbEntity
  8
4
  6
BYLAYER
 62
  256
370
   -1
100
AcDbLine
 10
1465.359409897345
 20
389.1826898880898
 11
1464.30295274208
 21
384.2955743503633
  0
LINE
  5
4F
100
AcDbEntity
  8
4
  6
BYLAYER
 62
  256
370
   -1
100
AcDbLine
 10
1811.025849276463
 20
371.9363339367985
 11
1809.864263924642
 21
367.073133399042
  0
ENDBLK
  5
42
330
40
100
AcDbEntity
  8
1
100
AcDbBlockEnd
  0
BLOCK
  5
41
330
40
100
AcDbEntity
  8
1
100
AcDbBlockBegin
  2
Detail
 70
    0
 10
0
 20
0
  3
Detail
  1

  0
LWPOLYLINE
  5
50
100
AcDbEntity
  8
1
  6
BYLAYER
 62
  256
370
   -1
100
AcDbPolyline
 90
   81
 70
    1
 43
0
 10
1273.335513649674
 20
107.7743214661517
 10
1165.254408552839
 20
0.1982370691681344
 10
1059.437064310106
 20
106.512345528088
 10
925.5665827889932
 20
241.0112879626677
 10
924.8635564627422
 20
241.6545306421637
 10
922.9164258352325
 20
243.1406373188333
 10
920.703923951277
 20
244.5212206634871
 10
918.1864246526267
 20
245.8182415111964
 10
915.408761093805
 20
247.0029485356133
 10
912.4193126710223
 20
248.0537856180005
 10
909.267816992872
 20
248.9550139906733
 10
906.0044062523918
 20
249.6953983651734
 10
902.6793449596006
 20
250.2672048579846
 10
899.343165576509
 20
250.6655570206178
 10
896.0470494824235
 20
250.888147590088
 10
892.8433898871202
 20
250.9353254496198
 10
889.7865156232442
 20
250.8106407713805
 10
886.9335475864702
 20
250.5220372452549
 10
884.3452611557647
 20
250.0840436672288
 10
882.0080170372535
 20
249.5019911659849
 10
880.4510048214183
 20
248.9899377751782
 10
786.1585887352603
 20
228.3158272896884
 10
780.2563870884734
 20
226.0579404125395
 10
767.2345630343143
 20
220.8009715367717
 10
754.5798158587518
 20
215.6167307919298
 10
742.5055187726247
 20
210.8886773311284
 10
733.9697873065253
 20
207.9138404436672
 10
728.4498179383315
 20
206.2399377556256
 10
723.1292784695999
 20
204.9111968240838
 10
717.9480148280014
 20
203.9888867152241
 10
712.8391821571934
 20
203.5740471883336
 10
707.7149748516108
 20
203.8400856775254
 10
702.6586010710437
 20
205.0587093354055
 10
698.9506506769339
 20
206.894226480581
 10
696.6144795620856
 20
208.582640440674
 10
688.0549093074998
 20
216.5760692247667
 10
746.5666086087178
 20
274.8143662573444
 10
804.4135458059588
 20
332.3910073590609
 10
897.5480968964528
 20
425.0903771463105
 10
968.0929930582746
 20
354.2143048403639
 10
1003.245400344874
 20
318.8968730185352
 10
1005.644773180111
 20
316.6449373960285
 10
1010.713693415029
 20
312.3589540302983
 10
1015.811912718108
 20
308.5671152836098
 10
1020.983513050361
 20
305.1950335926634
 10
1026.234047712353
 20
302.204042910583
 10
1031.569219289983
 20
299.5579350819396
 10
1036.994014786574
 20
297.2228257955117
 10
1042.512045435882
 20
295.1667359780203
 10
1048.125169924324
 20
293.3590099912922
 10
1053.80777515438
 20
291.7768339201989
 10
1062.560585994982
 20
289.7128402326272
 10
1074.542574897178
 20
287.4794442016372
 10
1086.810696255034
 20
285.5721821205818
 10
1099.344712448999
 20
283.7202275507995
 10
1112.095279680505
 20
281.6427743599735
 10
1124.980957418816
 20
279.0503749795932
 10
1134.713882432548
 20
276.5485003431444
 10
1141.262120336338
 20
274.5605856375475
 10
1147.783140035842
 20
272.2755958562116
 10
1154.291892609675
 20
269.6462036265533
 10
1160.773992289565
 20
266.6345283228861
 10
1167.21372152169
 20
263.204235819386
 10
1173.594530893671
 20
259.3209563997389
 10
1179.899738794365
 20
254.952492121989
 10
1186.113324239463
 20
250.0687410881714
 10
1192.183561265414
 20
244.6743062350667
 10
1195.233181825271
 20
241.6796766873498
 10
1199.133164680437
 20
237.6772062575855
 10
1206.420440921511
 20
229.4137764852411
 10
1213.275676524197
 20
220.7444771503408
 10
1219.696173262302
 20
211.7846359307983
 10
1225.713493505795
 20
202.6078333318402
 10
1231.358039715803
 20
193.286489532755
 10
1236.658991660588
 20
183.892434350204
 10
1241.651770810581
 20
174.4833471619307
 10
1248.617622279239
 20
160.5441275558804
 10
1257.000470943961
 20
142.6321416561106
 10
1264.572691430341
 20
126.0268292392963
 10
1271.507376805377
 20
111.326692845107
 10
1273.335513649674
 20
107.7743214661517
  0
LWPOLYLINE
  5
51
100
AcDbEntity
  8
8
  6
BYLAYER
 62
  256
370
   -1
100
AcDbPolyline
 90
   80
 70
    1
 43
0
 10
1172.342015783433
 20
7.252726685350273
 10
1066.524671540701
 20
113.5668351442702
 10
932.489368833239
 20
248.2313725255688
 10
931.2850454264234
 20
249.3332832026711
 10
928.6094675916364
 20
251.3753619559141
 10
925.6491399398283
 20
253.2225825528508
 10
922.443581813627
 20
254.8740927322007
 10
919.032312555661
 20
256.3290402326835
 10
915.4548515085585
 20
257.5865727930184
 10
911.7507180149471
 20
258.6458381519255
 10
907.9594314174558
 20
259.505984048124
 10
904.1205110587126
 20
260.1661582203336
 10
900.2734762813458
 20
260.6255084072739
 10
896.4578464279832
 20
260.8831823476643
 10
892.7131408412537
 20
260.9383277802245
 10
889.078878863785
 20
260.790092443674
 10
885.5945798382055
 20
260.4376240767325
 10
882.2997631071433
 20
259.8800704181196
 10
879.2339480132268
 20
259.1165792065545
 10
877.8112775685649
 20
258.6487066890619
 10
783.2852270609461
 20
237.9233706220992
 10
776.5978395761001
 20
235.365110950869
 10
763.4673378769473
 20
230.0642684215452
 10
750.8610303316345
 20
224.8998718269911
 10
739.0356571948215
 20
220.2692920105465
 10
730.8720055401752
 20
217.4241307991051
 10
725.7857137668863
 20
215.8817386400961
 10
721.0390719889682
 20
214.6963217749931
 10
716.6641727382533
 20
213.9175515592137
 10
712.6931085465739
 20
213.5950993481752
 10
709.1579719457624
 20
213.7786364972952
 10
706.0908554676514
 20
214.5178343619912
 10
704.1333426674396
 20
215.4868463294644
 10
702.9808862690023
 20
216.3197576941982
 10
702.4607647044432
 20
216.8054777200541
 10
753.6210982249002
 20
267.7267590267498
 10
811.4680354221412
 20
325.3034001284663
 10
897.5149792820404
 20
410.9482802995336
 10
961.00538582768
 20
347.1598152241817
 10
996.277833908591
 20
311.7217790712084
 10
998.9902135258874
 20
309.1760703792334
 10
1004.495344894177
 20
304.5212523159868
 10
1010.091584882577
 20
300.3590069588747
 10
1015.773002446279
 20
296.654504887108
 10
1021.533666540476
 20
293.3729166798983
 10
1027.367646120362
 20
290.4794129164565
 10
1033.269010141128
 20
287.9391641759941
 10
1039.231827557968
 20
285.7173410377221
 10
1045.250167326075
 20
283.7791140808519
 10
1051.318098400642
 20
282.0896538845946
 10
1060.495659089782
 20
279.9255002573026
 10
1072.857896539986
 20
277.6212273790009
 10
1085.311740409498
 20
275.6850919689532
 10
1097.809742339863
 20
273.8384586608497
 10
1110.304453972622
 20
271.8026920883801
 10
1122.748426949317
 20
269.2991568852341
 10
1132.015385870558
 20
266.9170600901438
 10
1138.154835530805
 20
265.0532453596479
 10
1144.254910825404
 20
262.9157560779335
 10
1150.309680709548
 20
260.4697628242118
 10
1156.313214138429
 20
257.6804361776942
 10
1162.259580067241
 20
254.5129467175917
 10
1168.142847451177
 20
250.9324650231158
 10
1173.957085245428
 20
246.9041616734775
 10
1179.696362405188
 20
242.3932072478879
 10
1185.354747885651
 20
237.3647723255588
 10
1188.148011617705
 20
234.6218769579566
 10
1191.797459904011
 20
230.8765248901779
 10
1198.74285358489
 20
223.0007739203261
 10
1205.284985551219
 20
214.7274331350275
 10
1211.447124420259
 20
206.1281318517331
 10
1217.252538809271
 20
197.2744993878943
 10
1222.724497335513
 20
188.2381650609628
 10
1227.886268616246
 20
179.0907581883897
 10
1232.761121268729
 20
169.9039080876263
 10
1239.61492130538
 20
156.1889122573699
 10
1247.922338247968
 20
138.4381044961185
 10
1255.500915788235
 20
121.8188515362309
 10
1262.536802864259
 20
106.9041879173181
 10
1265.898431227283
 20
100.3719896189552
  0
LINE
  5
52
100
AcDbEntity
  8
4
  6
BYLAYER
 62
  256
370
   -1
100
AcDbLine
 10
1059.437064310106
 20
106.512345528088
 11
1062.980867925403
 21
110.0395903361791
  0
LINE
  5
53
100
AcDbEntity
  8
4
  6
BYLAYER
 62
  256
370
   -1
100
AcDbLine
 10
925.4017616026442
 20
241.1768829093866
 11
928.9455652179415
 21
244.7041277174777
  0
LINE
  5
54
100
AcDbEntity
  8
4
  6
BYLAYER
 62
  256
370
   -1
100
AcDbLine
 10
880.4510048214183
 20
248.9899377751782
 11
882.1376659187285
 21
253.6968661093277
  0
LINE
  5
55
100
AcDbEntity
  8
4
  6
BYLAYER
 62
  256
370
   -1
100
AcDbLine
 10
880.4510048214183
 20
248.9899377751782
 11
876.6048110694938
 21
252.1847450655568
  0
LINE
  5
56
100
AcDbEntity
  8
4
  6
BYLAYER
 62
  256
370
   -1
100
AcDbLine
 10
786.1585887352603
 20
228.3158272896884
 11
784.7259215962087
 21
233.1061785157133
  0
LINE
  5
57
100
AcDbEntity
  8
4
  6
BYLAYER
 62
  256
370
   -1
100
AcDbLine
 10
688.0549093074998
 20
216.5760692247667
 11
693.0542754402588
 21
216.6556824813426
  0
LINE
  5
58
100
AcDbEntity
  8
4
  6
BYLAYER
 62
  256
370
   -1
100
AcDbLine
 10
804.4135458059588
 20
332.3910073590609
 11
805.2702533524243
 21
327.4649488758689
  0
LINE
  5
59
100
AcDbEntity
  8
4
  6
BYLAYER
 62
  256
370
   -1
100
AcDbLine
 10
804.4135458059588
 20
332.3910073590609
 11
809.3355378500046
 21
331.511237890194
  0
LINE
  5
5A
100
AcDbEntity
  8
4
  6
BYLAYER
 62
  256
370
   -1
100
AcDbLine
 10
895.6613931927352
 20
420.0947816728581
 11
899.4113829104425
 21
420.0860000392101
  0
LINE
  5
5B
100
AcDbEntity
  8
4
  6
BYLAYER
 62
  256
370
   -1
100
AcDbLine
 10
897.5480968964528
 20
425.0903771463105
 11
897.5363880515889
 21
420.0903908560341
  0
LINE
  5
5C
100
AcDbEntity
  8
4
  6
BYLAYER
 62
  256
370
   -1
100
AcDbLine
 10
968.0929930582746
 20
354.2143048403639
 11
964.5491894429773
 21
350.6870600322728
  0
LINE
  5
5D
100
AcDbEntity
  8
4
  6
BYLAYER
 62
  256
370
   -1
100
AcDbLine
 10
1003.365441139186
 20
318.7762686873906
 11
999.8216375238883
 21
315.2490238792995
  0
ENDBLK
  5
42
330
40
100
AcDbEntity
  8
1
100
AcDbBlockEnd
  0
BLOCK
  5
41
330
40
100
AcDbEntity
  8
1
100
AcDbBlockBegin
  2
Detail
 70
    0
 10
0
 20
0
  3
Detail
  1

  0
LWPOLYLINE
  5
5E
100
AcDbEntity
  8
1
  6
BYLAYER
 62
  256
370
   -1
100
AcDbPolyline
 90
   98
 70
    1
 43
0
 10
1012.702980914746
 20
371.4214340822306
 10
1013.894813267273
 20
373.7833694874303
 10
1016.116672310226
 20
377.625798454592
 10
1018.606426502845
 20
381.3445499666497
 10
1021.314999286518
 20
384.8882841792501
 10
1024.223542536024
 20
388.2575956380363
 10
1027.344464330715
 20
391.4852219754241
 10
1032.258880798913
 20
395.9728252462887
 10
1039.30939302748
 20
401.3313532348346
 10
1046.852514158346
 20
406.0664485162224
 10
1054.750223270358
 20
410.1668862613613
 10
1062.905043446179
 20
413.6429644091236
 10
1071.223507151268
 20
416.5001246552257
 10
1079.615260336112
 20
418.7391585069067
 10
1087.992980851387
 20
420.356213202262
 10
1096.272913144264
 20
421.3422303773742
 10
1104.37583157226
 20
421.6813991228369
 10
1112.228071833954
 20
421.3479874439539
 10
1119.71124808799
 20
420.3075972762585
 10
1125.068662112738
 20
418.9955837630812
 10
1128.5175753379
 20
417.873685091209
 10
1130.431892609093
 20
417.1247059603355
 10
1136.311193236009
 20
414.3697755428185
 10
1146.126514202527
 20
409.2203424871758
 10
1154.726709747231
 20
404.0694175758979
 10
1162.512116558783
 20
398.8531196210422
 10
1173.465991054807
 20
390.874136999103
 10
1185.446454292922
 20
382.0540238501138
 10
1194.71180698915
 20
375.5814875508073
 10
1199.960181025923
 20
372.1045392004626
 10
1202.455587303167
 20
370.5313773245517
 10
1208.280900745501
 20
367.3910241615355
 10
1218.45594356779
 20
362.6834161980079
 10
1233.669975775044
 20
356.2947049129606
 10
1245.363217144802
 20
351.0768547907062
 10
1253.077352342857
 20
347.204341794011
 10
1260.423949600074
 20
342.9266528601642
 10
1265.605314811474
 20
339.32469575163
 10
1268.937068046853
 20
336.669917697893
 10
1272.053029655231
 20
333.8313268920946
 10
1274.952213949022
 20
330.7539657212412
 10
1277.590798863495
 20
327.4121689132319
 10
1279.91488758132
 20
323.7876354208263
 10
1281.862268821601
 20
319.8758380802998
 10
1283.368573931426
 20
315.6912808835838
 10
1284.377124524527
 20
311.2678868768513
 10
1284.848508886906
 20
306.6521325273478
 10
1284.764685031392
 20
301.8908421631312
 10
1284.125423733464
 20
297.0193829711047
 10
1282.939776309494
 20
292.0554419393071
 10
1281.238834259609
 20
287.0623033796487
 10
1280.214503542735
 20
284.6300037255928
 10
1279.216912667462
 20
282.1215554115408
 10
1276.826043578512
 20
277.2810775513553
 10
1274.015526025767
 20
272.8565119295752
 10
1270.818981457192
 20
268.9350387551634
 10
1267.257307683659
 20
265.548049907126
 10
1263.378074853289
 20
262.7273185687906
 10
1259.251673723662
 20
260.4895671546353
 10
1254.95773015766
 20
258.8257711222215
 10
1250.568812963066
 20
257.7009658407422
 10
1246.139745669717
 20
257.0628431443328
 10
1241.705507271002
 20
256.8527051141407
 10
1237.285142141098
 20
257.0136223683537
 10
1232.887579602227
 20
257.4943977839968
 10
1228.476330153644
 20
258.2573598182044
 10
1222.003964454865
 20
259.7923595230542
 10
1213.48506574008
 20
262.5117193066811
 10
1205.081797021836
 20
265.7632863385239
 10
1193.029195423875
 20
271.0844577383378
 10
1178.367083778486
 20
278.0745675971224
 10
1169.077931994801
 20
282.1967400640017
 10
1164.045388619511
 20
284.0601466249234
 10
1162.039748832792
 20
284.6183810003503
 10
1155.459358395612
 20
286.247260126573
 10
1142.564737574706
 20
289.0987218807697
 10
1124.43338481363
 20
292.6095032077772
 10
1103.620489648198
 20
296.3121261040251
 10
1091.088386553157
 20
298.9878294585453
 10
1083.981205819958
 20
301.073129988958
 10
1080.945423747582
 20
302.3309479162415
 10
1067.173767276878
 20
308.4431180613702
 10
1047.601029159438
 20
317.5283726198742
 10
1038.515831311205
 20
322.386803582261
 10
1032.798939302924
 20
325.8381948045325
 10
1027.493053636407
 20
329.5014771527424
 10
1022.62977896161
 20
333.4770225940321
 10
1018.288594304746
 20
337.8755136815895
 10
1014.649768783768
 20
342.7609465979211
 10
1012.499243670112
 20
346.881466760216
 10
1011.340442312357
 20
349.9238099818339
 10
1010.526617297842
 20
353.0381692005606
 10
1010.063972955525
 20
356.2675377470514
 10
1009.974643733233
 20
359.5693489854183
 10
1010.2644532228
 20
362.8992244596031
 10
1010.924532102256
 20
366.2200180286528
 10
1011.91476444168
 20
369.4353650671148
 10
1012.702980914746
 20
371.4214340822306
  0
LWPOLYLINE
  5
5F
100
AcDbEntity
  8
8
  6
BYLAYER
 62
  256
370
   -1
100
AcDbPolyline
 90
   97
 70
    1
 43
0
 10
1022.694290139195
 20
369.0241335912302
 10
1024.609070629151
 20
372.3355083805977
 10
1026.741702499104
 20
375.5208541527068
 10
1029.07923644045
 20
378.579143393075
 10
1031.608723144587
 20
381.50934858722
 10
1034.317213302914
 20
384.3104422206594
 10
1038.668924631605
 20
388.2842108499294
 10
1045.004533970163
 20
393.0993985787866
 10
1051.823069570634
 20
397.3796448041393
 10
1059.0209369642
 20
401.1167294101285
 10
1066.49454168204
 20
404.3024322808953
 10
1074.140289255336
 20
406.9285333005811
 10
1081.85458521527
 20
408.9868123533268
 10
1089.533835093021
 20
410.4690493232738
 10
1097.074444419771
 20
411.3670240945631
 10
1104.3728187267
 20
411.6725165513359
 10
1111.32536354499
 20
411.3773065777333
 10
1117.828484405822
 20
410.4731740578966
 10
1122.328862210531
 20
409.3710459664507
 10
1125.146234858335
 20
408.4545814382391
 10
1126.484365787564
 20
407.9310359656829
 10
1131.864510599601
 20
405.4100006361627
 10
1141.230612117147
 20
400.4962425510755
 10
1149.371057559014
 20
395.6206762924413
 10
1156.782924316485
 20
390.6546537910484
 10
1167.557731863653
 20
382.8061064843592
 10
1179.617826395342
 20
373.9273681381997
 10
1189.086152328048
 20
367.3130399736542
 10
1194.531607183103
 20
363.7055293155913
 10
1197.410643076681
 20
361.8905184500432
 10
1203.804597064116
 20
358.4436183257165
 10
1214.419300505265
 20
353.5325960015081
 10
1229.696140421728
 20
347.1175103592132
 10
1241.080284618251
 20
342.0375880084081
 10
1248.31362852064
 20
338.4064333096121
 10
1255.045382176271
 20
334.4867481669717
 10
1259.62907501724
 20
331.3002781270795
 10
1262.446931865547
 20
329.0549784332064
 10
1265.036294775499
 20
326.6961105545705
 10
1267.374253441172
 20
324.2144665858823
 10
1269.437897556639
 20
321.6008386218528
 10
1271.204316815975
 20
318.8460187571926
 10
1272.650600913255
 20
315.9407990866124
 10
1273.753839542552
 20
312.875971704823
 10
1274.491122397942
 20
309.6423287065351
 10
1274.839539173499
 20
306.2306621864594
 10
1274.776179563298
 20
302.6317642393067
 10
1274.278133261412
 20
298.8364269597878
 10
1273.322489961915
 20
294.8354424426131
 10
1271.886339358884
 20
290.6196027824937
 10
1270.959461316173
 20
288.4187070117234
 10
1270.073158534331
 20
286.1900932844347
 10
1268.097547110793
 20
282.1903329461695
 10
1265.891202844378
 20
278.7169104153421
 10
1263.468430389473
 20
275.7446893229114
 10
1260.843534400464
 20
273.2485332998369
 10
1258.030819531738
 20
271.2033059770773
 10
1255.044590437679
 20
269.583870985592
 10
1251.899151772675
 20
268.3650919563402
 10
1248.608808191111
 20
267.5218325202808
 10
1245.187864347374
 20
267.0289563083731
 10
1241.65062489585
 20
266.8613269515761
 10
1238.011394490926
 20
266.9938080808491
 10
1234.284477786986
 20
267.401263327151
 10
1230.484179438418
 20
268.0585563214412
 10
1224.682135264439
 20
269.4345811799041
 10
1216.812904552165
 20
271.9465572279228
 10
1208.907631040327
 20
275.0054296251586
 10
1197.201215689128
 20
280.1737612965288
 10
1182.547658689145
 20
287.1597927583785
 10
1172.845924715816
 20
291.4650535181481
 10
1167.127576343474
 20
293.5823940118195
 10
1164.582391375034
 20
294.2908012495555
 10
1157.740728890804
 20
295.9843544384751
 10
1144.595185312907
 20
298.8913041868326
 10
1126.259739940924
 20
302.4416040504212
 10
1105.540814945037
 20
306.1275096135661
 10
1093.543546572248
 20
308.6890215151762
 10
1087.312377902563
 20
310.5172934868299
 10
1084.888232720802
 20
311.521691429522
 10
1071.30753843656
 20
317.5491082715587
 10
1052.067598346301
 20
326.4798849652203
 10
1043.461203864768
 20
331.0822694286173
 10
1038.228973201274
 20
334.2410618211831
 10
1033.508236697686
 20
337.5003462820745
 10
1029.372096377225
 20
340.8814865414879
 10
1025.893654263114
 20
344.4058463296195
 10
1023.146012378573
 20
348.0947893766656
 10
1021.635679325737
 20
350.9886676003952
 10
1020.878491702416
 20
352.9766050651632
 10
1020.345124024549
 20
355.0177054428951
 10
1020.044714045041
 20
357.1146391998658
 10
1019.986399516793
 20
359.2700768023494
 10
1020.179318192708
 20
361.4866887166208
 10
1020.63260782569
 20
363.7671454089543
 10
1021.355406168641
 20
366.1141173456245
 10
1021.832527293275
 20
367.316319423953
  0
LINE
  5
60
100
AcDbEntity
  8
4
  6
BYLAYER
 62
  256
370
   -1
100
AcDbLine
 10
1130.127930896807
 20
417.2436313769907
 11
1128.306148342186
 21
412.5873336713368
  0
LINE
  5
61
100
AcDbEntity
  8
4
  6
BYLAYER
 62
  256
370
   -1
100
AcDbLine
 10
1200.054428599848
 20
372.0421019685915
 11
1195.401582556118
 21
370.2115218164668
  0
LINE
  5
62
100
AcDbEntity
  8
4
  6
BYLAYER
 62
  256
370
   -1
100
AcDbLine
 10
1200.054428599848
 20
372.0421019685915
 11
1200.183244189808
 21
367.0437615896473
  0
LINE
  5
63
100
AcDbEntity
  8
4
  6
BYLAYER
 62
  256
370
   -1
100
AcDbLine
 10
1280.175537854892
 20
284.5374786968123
 11
1275.567499585533
 21
286.4780928542679
  0
LINE
  5
64
100
AcDbEntity
  8
4
  6
BYLAYER
 62
  256
370
   -1
100
AcDbLine
 10
1160.920341619522
 20
290.0550203987121
 11
1157.138404368628
 21
286.7844010949254
  0
LINE
  5
65
100
AcDbEntity
  8
4
  6
BYLAYER
 62
  256
370
   -1
100
AcDbLine
 10
1160.920341619522
 20
290.0550203987121
 11
1162.700219724091
 21
285.3825441887272
  0
LINE
  5
66
100
AcDbEntity
  8
4
  6
BYLAYER
 62
  256
370
   -1
100
AcDbLine
 10
1081.060474168539
 20
302.283278986598
 11
1082.97435344467
 21
306.9024852080601
  0
LINE
  5
67
100
AcDbEntity
  8
4
  6
BYLAYER
 62
  256
370
   -1
100
AcDbLine
 10
1012.537770766229
 20
371.0051540777334
 11
1017.185149029752
 21
369.1607367508432
  0
ENDBLK
  5
42
330
40
100
AcDbEntity
  8
0
100
AcDbBlockEnd
  0
ENDSEC
  0
SECTION
  2
ENTITIES
  0
INSERT
  5
68
100
AcDbEntity
  8
1
  6
BYLAYER
 62
  256
370
   -1
100
AcDbBlockReference
  2
Detail
 10
0
 20
0
 30
0
 41
1
 42
1
 43
1
 50
0
 70
    1
 71
    1
 44
0
 45
0
  0
INSERT
  5
69
100
AcDbEntity
  8
1
  6
BYLAYER
 62
  256
370
   -1
100
AcDbBlockReference
  2
Detail
 10
0
 20
0
 30
0
 41
1
 42
1
 43
1
 50
0
 70
    1
 71
    1
 44
0
 45
0
  0
INSERT
  5
6A
100
AcDbEntity
  8
1
  6
BYLAYER
 62
  256
370
   -1
100
AcDbBlockReference
  2
Detail
 10
0
 20
0
 30
0
 41
1
 42
1
 43
1
 50
0
 70
    1
 71
    1
 44
0
 45
0
  0
ENDSEC
  0
SECTION
  2
OBJECTS
  0
DICTIONARY
  5
C
330
0
100
AcDbDictionary
281
    1
  3
ACAD_GROUP
350
D
  0
DICTIONARY
  5
D
330
C
100
AcDbDictionary
281
    1
  0
ENDSEC
  0
EOF
